<?xml version="1.0" encoding="UTF-8"?>
<!DOCTYPE svg PUBLIC "-//W3C//DTD SVG 1.1//EN" "http://www.w3.org/Graphics/SVG/1.1/DTD/svg11.dtd">
<!-- Creator: CorelDRAW X7 -->
<svg xmlns="http://www.w3.org/2000/svg" xml:space="preserve" width="127.74mm" height="88.571mm" version="1.1" style="shape-rendering:geometricPrecision; text-rendering:geometricPrecision; image-rendering:optimizeQuality; fill-rule:evenodd; clip-rule:evenodd"
viewBox="0 0 12774 8857"
 xmlns:xlink="http://www.w3.org/1999/xlink">
 <defs>
  <style type="text/css">
   <![CDATA[
    .fil1 {fill:#008BD2}
    .fil0 {fill:#008BD2;fill-rule:nonzero}
   ]]>
  </style>
 </defs>
 <g id="Vrstva_x0020_1">
  <metadata id="CorelCorpID_0Corel-Layer"/>
  <g id="_3104719605056">
   <g>
    <path class="fil0" d="M3279 3967l0 -334c0,-131 -2,-225 -8,-324l4 -1c39,85 91,175 146,262l249 397 102 0 0 -783 -95 0 0 328c0,122 2,217 11,322l-2 1c-37,-80 -82,-163 -141,-255l-251 -396 -110 0 0 783 95 0zm1096 0c-7,-38 -10,-86 -10,-134l0 -211c0,-113 -42,-230 -214,-230 -71,0 -138,20 -185,50l24 67c39,-25 94,-41 146,-41 115,0 128,83 128,130l0 11c-217,-1 -338,74 -338,210 0,81 58,161 172,161 80,0 141,-39 172,-83l3 0 9 70 93 0zm-109 -189c0,10 -2,22 -5,32 -17,48 -63,95 -136,95 -53,0 -97,-32 -97,-98 0,-109 127,-129 238,-127l0 98zm390 -636l-101 0 0 825 101 0 0 -211 52 -58 195 269 124 0 -248 -331 218 -231 -124 0 -165 194c-16,20 -36,44 -50,64l-2 0 0 -521zm695 250c-155,0 -279,110 -279,299 0,178 118,289 270,289 136,0 280,-90 280,-299 0,-172 -109,-289 -271,-289zm-2 77c121,0 169,121 169,216 0,127 -73,218 -171,218 -100,0 -171,-93 -171,-216 0,-107 52,-218 173,-218zm427 729l101 0 0 -306 3 0c33,56 98,88 173,88 132,0 255,-100 255,-302 0,-171 -102,-286 -238,-286 -92,0 -158,41 -200,109l-2 0 -5 -96 -92 0c3,53 5,111 5,183l0 610zm101 -556c0,-14 4,-29 7,-42 20,-77 85,-127 155,-127 108,0 167,97 167,210 0,129 -63,217 -171,217 -73,0 -135,-49 -153,-120 -2,-13 -5,-26 -5,-42l0 -96zm585 325l102 0 0 -338c0,-17 3,-35 7,-48 18,-56 70,-104 138,-104 96,0 130,75 130,166l0 324 102 0 0 -336c0,-193 -121,-239 -199,-239 -93,0 -158,52 -186,106l-2 0 -6 -93 -90 0c3,46 4,94 4,152l0 410zm1122 -262c1,-11 4,-27 4,-48 0,-103 -49,-265 -233,-265 -164,0 -264,134 -264,303 0,170 104,284 277,284 89,0 151,-19 187,-35l-17 -73c-39,16 -83,29 -156,29 -102,0 -191,-57 -193,-195l395 0zm-394 -74c8,-70 54,-166 157,-166 115,0 143,101 142,166l-299 0zm188 -303l110 -166 -76 0 -70 110 -2 0 -69 -110 -77 0 111 166 73 0zm384 -58l0 135 -87 0 0 78 87 0 0 307c0,66 11,116 40,146 24,28 63,43 110,43 40,0 71,-6 91,-14l-5 -77c-12,4 -32,7 -59,7 -57,0 -77,-39 -77,-109l0 -303 147 0 0 -78 -147 0 0 -162 -100 27zm832 435c1,-11 3,-27 3,-48 0,-103 -49,-265 -232,-265 -164,0 -264,134 -264,303 0,170 103,284 276,284 90,0 152,-19 188,-35l-18 -73c-38,16 -82,29 -156,29 -102,0 -190,-57 -193,-195l396 0zm-394 -74c8,-70 53,-166 157,-166 115,0 143,101 141,166l-298 0zm-5059 1507c39,23 96,38 158,38 134,0 210,-69 210,-168 0,-84 -50,-133 -147,-170 -73,-28 -107,-49 -107,-95 0,-42 34,-77 94,-77 52,0 93,19 115,33l26 -75c-32,-18 -82,-35 -139,-35 -121,0 -194,75 -194,165 0,68 48,124 149,160 76,28 105,54 105,103 0,47 -35,84 -110,84 -51,0 -104,-21 -135,-41l-25 78zm443 -536l214 563 98 0 220 -563 -106 0 -110 316c-18,52 -35,98 -47,145l-4 0c-12,-47 -27,-93 -45,-145l-111 -316 -109 0zm880 -13c-155,0 -279,111 -279,299 0,178 118,290 270,290 136,0 280,-91 280,-299 0,-172 -109,-290 -271,-290zm-2 77c121,0 169,121 169,216 0,127 -74,219 -171,219 -100,0 -171,-93 -171,-216 0,-107 52,-219 173,-219zm300 742c55,0 129,-19 174,-64 50,-51 68,-122 68,-231l0 -511 -102 0 0 471c0,135 -11,179 -39,212 -24,26 -65,39 -111,43l10 80zm192 -1028c-38,0 -65,28 -65,64 0,34 24,63 63,63 40,0 65,-29 64,-63 0,-36 -25,-64 -62,-64zm344 785l0 -563 -102 0 0 563 102 0zm-51 -785c-37,0 -64,28 -64,64 0,35 26,63 62,63 40,0 66,-28 65,-63 0,-36 -25,-64 -63,-64zm453 758c39,23 96,38 158,38 133,0 210,-69 210,-168 0,-84 -50,-133 -148,-170 -73,-28 -107,-49 -107,-95 0,-42 34,-77 95,-77 52,0 93,19 115,33l25 -75c-31,-18 -81,-35 -138,-35 -121,0 -194,75 -194,165 0,68 47,124 149,160 75,28 104,54 104,103 0,47 -35,84 -109,84 -51,0 -105,-21 -135,-41l-25 78zm227 -613l110 -166 -77 0 -69 111 -2 0 -69 -111 -79 0 112 166 74 0zm398 -186l-101 0 0 826 101 0 0 -212 53 -58 194 270 124 0 -248 -331 218 -232 -123 0 -165 194c-17,20 -37,45 -50,64l-3 0 0 -521zm696 250c-156,0 -279,111 -279,299 0,178 117,290 269,290 136,0 280,-91 280,-299 0,-172 -109,-290 -270,-290zm-3 77c121,0 169,121 169,216 0,127 -73,219 -171,219 -100,0 -171,-93 -171,-216 0,-107 52,-219 173,-219zm427 499l102 0 0 -826 -102 0 0 826zm770 -563l-102 0 0 345c0,19 -4,38 -10,53 -18,45 -66,93 -134,93 -93,0 -126,-72 -126,-179l0 -312 -102 0 0 329c0,198 105,247 194,247 100,0 159,-60 186,-105l2 0 6 92 91 0c-4,-44 -5,-95 -5,-154l0 -409z"/>
    <path class="fil0" d="M3184 8159l436 0 0 -85 -335 0 0 -699 -101 0 0 784zm660 0l0 -563 -102 0 0 563 102 0zm-51 -785c-37,0 -64,28 -64,64 0,35 26,62 62,62 41,0 66,-27 65,-62 0,-36 -24,-64 -63,-64zm269 87l0 135 -87 0 0 78 87 0 0 307c0,66 11,116 40,146 24,28 62,43 110,43 40,0 71,-6 91,-14l-5 -77c-13,4 -32,7 -59,7 -57,0 -77,-39 -77,-109l0 -303 147 0 0 -78 -147 0 0 -162 -100 27zm606 122c-156,0 -279,110 -279,299 0,178 117,289 270,289 136,0 280,-90 280,-298 0,-173 -109,-290 -271,-290zm-2 77c121,0 168,121 168,216 0,127 -73,219 -171,219 -100,0 -171,-93 -171,-217 0,-107 53,-218 174,-218zm427 499l100 0 0 -340c0,-17 2,-35 8,-50 16,-51 62,-102 126,-102 78,0 118,65 118,154l0 338 100 0 0 -348c0,-19 3,-37 8,-51 17,-50 63,-93 121,-93 82,0 122,65 122,173l0 319 100 0 0 -332c0,-195 -111,-244 -185,-244 -53,0 -91,14 -124,40 -24,17 -46,41 -63,73l-2 0c-25,-66 -83,-113 -160,-113 -93,0 -145,50 -176,104l-4 0 -5 -91 -89 0c3,46 5,94 5,152l0 411zm904 -563l208 518c5,13 7,21 7,27 0,6 -3,14 -8,24 -23,53 -58,92 -86,114 -30,26 -64,42 -89,50l25 86c26,-4 76,-22 126,-66 70,-60 119,-159 193,-352l153 -401 -108 0 -112 330c-13,41 -25,84 -36,117l-2 0c-9,-33 -23,-77 -36,-115l-123 -332 -112 0zm600 536c40,23 97,38 158,38 134,0 211,-70 211,-168 0,-84 -50,-133 -148,-170 -73,-28 -107,-49 -107,-96 0,-41 34,-76 94,-76 53,0 93,18 116,32l25 -74c-31,-19 -81,-35 -138,-35 -121,0 -194,74 -194,165 0,68 47,123 148,159 76,28 105,55 105,104 0,46 -35,84 -109,84 -51,0 -105,-21 -135,-41l-26 78zm228 -613l109 -166 -76 0 -69 110 -2 0 -69 -110 -79 0 112 166 74 0zm297 640l102 0 0 -826 -102 0 0 826z"/>
    <path class="fil0" d="M3285 6961l0 -485 136 0 0 -78 -136 0 0 -30c0,-86 22,-163 109,-163 29,0 50,6 65,13l14 -79c-19,-8 -51,-16 -87,-16 -48,0 -99,15 -137,52 -48,46 -65,118 -65,197l0 26 -79 0 0 78 79 0 0 485 101 0zm690 -263c1,-10 3,-26 3,-47 0,-104 -49,-265 -232,-265 -164,0 -264,133 -264,303 0,170 103,284 276,284 90,0 152,-19 188,-35l-18 -73c-38,16 -82,29 -156,29 -102,0 -190,-57 -193,-196l396 0zm-394 -73c8,-71 53,-166 156,-166 116,0 143,101 142,166l-298 0zm509 309c39,24 96,39 158,39 134,0 210,-70 210,-169 0,-84 -49,-132 -147,-170 -73,-28 -107,-48 -107,-95 0,-42 34,-77 94,-77 52,0 93,19 115,33l26 -75c-32,-18 -82,-34 -139,-34 -121,0 -194,74 -194,165 0,67 48,123 149,159 76,28 105,55 105,103 0,47 -35,84 -110,84 -51,0 -104,-21 -134,-41l-26 78zm548 -670l0 134 -87 0 0 78 87 0 0 307c0,66 10,116 39,147 25,28 63,43 111,43 39,0 71,-6 90,-14l-4 -77c-13,4 -33,7 -60,7 -57,0 -76,-40 -76,-109l0 -304 146 0 0 -78 -146 0 0 -161 -100 27zm488 697l0 -563 -102 0 0 563 102 0zm-51 -785c-37,0 -64,28 -64,64 0,35 26,63 62,63 40,0 66,-28 65,-63 0,-36 -25,-64 -63,-64zm176 222l214 563 97 0 221 -563 -107 0 -109 317c-19,51 -35,97 -48,144l-3 0c-12,-47 -27,-93 -45,-144l-111 -317 -109 0zm1053 563c-7,-38 -9,-86 -9,-135l0 -210c0,-113 -42,-230 -214,-230 -71,0 -138,19 -185,50l24 67c39,-26 94,-42 146,-42 115,0 128,84 128,130l0 12c-217,-1 -338,73 -338,209 0,82 58,162 172,162 80,0 140,-40 172,-84l3 0 8 71 93 0zm-108 -189c0,10 -2,22 -6,32 -16,48 -62,94 -136,94 -52,0 -96,-31 -96,-97 0,-110 127,-129 238,-127l0 98zm289 189l102 0 0 -825 -102 0 0 825zm476 -563l213 563 98 0 221 -563 -107 0 -109 317c-19,51 -35,97 -48,144l-3 0c-12,-47 -27,-93 -46,-144l-110 -317 -109 0zm589 563l457 0 0 -81 -329 0 0 -3c26,-29 49,-57 72,-88l251 -327 1 -64 -429 0 0 83 305 0 0 2c-26,30 -49,57 -73,87l-255 332 0 59zm962 -825l0 336 -3 0c-25,-46 -83,-86 -169,-86 -137,0 -254,115 -253,302 0,171 105,286 241,286 92,0 161,-48 192,-111l2 0 5 98 92 0c-4,-38 -5,-95 -5,-145l0 -680 -102 0zm0 589c0,16 -1,30 -5,44 -18,77 -81,122 -150,122 -110,0 -166,-94 -166,-208 0,-124 63,-217 169,-217 76,0 132,53 147,118 4,13 5,31 5,43l0 98zm749 -27c1,-10 3,-26 3,-47 0,-104 -49,-265 -232,-265 -164,0 -264,133 -264,303 0,170 103,284 276,284 90,0 152,-19 188,-35l-18 -73c-38,16 -82,29 -156,29 -102,0 -190,-57 -193,-196l396 0zm-394 -73c8,-71 53,-166 157,-166 115,0 143,101 141,166l-298 0zm188 -303l109 -167 -75 0 -70 111 -2 0 -69 -111 -78 0 112 167 73 0zm361 639l102 0 0 -825 -102 0 0 825zm703 0c-7,-38 -9,-86 -9,-135l0 -210c0,-113 -42,-230 -214,-230 -71,0 -138,19 -185,50l23 67c40,-26 94,-42 147,-42 115,0 128,84 128,130l0 12c-218,-1 -339,73 -339,209 0,82 59,162 172,162 81,0 141,-40 173,-84l3 0 8 71 93 0zm-108 -189c0,10 -2,22 -6,32 -16,48 -63,94 -136,94 -52,0 -96,-31 -96,-97 0,-110 126,-129 238,-127l0 98zm-62 -617l-102 167 73 0 142 -167 -113 0zm272 243l213 563 98 0 221 -563 -107 0 -109 317c-19,51 -35,97 -48,144l-3 0c-12,-47 -27,-93 -46,-144l-110 -317 -109 0zm1053 563c-7,-38 -9,-86 -9,-135l0 -210c0,-113 -42,-230 -214,-230 -71,0 -139,19 -185,50l23 67c40,-26 94,-42 147,-42 115,0 128,84 128,130l0 12c-218,-1 -339,73 -339,209 0,82 58,162 172,162 81,0 141,-40 172,-84l4 0 8 71 93 0zm-108 -189c0,10 -2,22 -6,32 -16,48 -63,94 -136,94 -52,0 -96,-31 -96,-97 0,-110 126,-129 238,-127l0 98zm-62 -617l-102 167 73 0 142 -167 -113 0zm350 806l103 0 0 -338c0,-18 2,-35 7,-48 17,-57 69,-105 137,-105 96,0 130,76 130,167l0 324 102 0 0 -336c0,-193 -121,-239 -198,-239 -93,0 -159,52 -186,105l-3 0 -6 -93 -90 0c3,47 4,95 4,153l0 410zm773 0l0 -563 -103 0 0 563 103 0zm-7 -806l-103 167 74 0 141 -167 -112 0z"/>
   </g>
   <path class="fil1" d="M1746 571c80,-80 191,-129 313,-129 244,0 441,197 441,441l0 1284 422 -421c172,-172 452,-172 624,0 173,173 173,453 0,625l-1175 1175c-80,80 -190,130 -312,130 -244,0 -442,-198 -442,-442l0 -1284 -421 421c-173,173 -452,173 -625,0 -173,-172 -172,-452 0,-625l1175 -1175zm1246 1246c134,-133 350,-133 484,0 133,133 133,350 0,483l-1176 1176c-133,133 -350,133 -483,0 -133,-134 -133,-350 0,-484l1175 -1175zm-592 450l0 -1384c0,-188 -153,-341 -341,-341 -189,0 -342,153 -342,341l0 2072c9,-11 18,-23 29,-33l654 -655zm-783 -1384c0,-14 1,-29 2,-43l-977 977c-134,133 -134,350 0,483 133,134 350,134 483,0l492 -492 0 -925z"/>
  </g>
 </g>
</svg>
