<?xml version="1.0" encoding="UTF-8"?>
<!DOCTYPE svg PUBLIC "-//W3C//DTD SVG 1.1//EN" "http://www.w3.org/Graphics/SVG/1.1/DTD/svg11.dtd">
<!-- Creator: CorelDRAW X7 -->
<svg xmlns="http://www.w3.org/2000/svg" xml:space="preserve" width="90.389mm" height="58.493mm" version="1.1" style="shape-rendering:geometricPrecision; text-rendering:geometricPrecision; image-rendering:optimizeQuality; fill-rule:evenodd; clip-rule:evenodd"
viewBox="0 0 9039 5849"
 xmlns:xlink="http://www.w3.org/1999/xlink">
 <defs>
  <style type="text/css">
   <![CDATA[
    .fil0 {fill:#008BD2}
   ]]>
  </style>
 </defs>
 <g id="Vrstva_x0020_1">
  <metadata id="CorelCorpID_0Corel-Layer"/>
  <g id="_3104485262016">
   <path class="fil0" d="M3279 3967l0 -334c0,-131 -2,-225 -8,-324l4 -1c39,85 91,175 146,262l249 397 102 0 0 -783 -95 0 0 328c0,122 2,217 11,322l-2 1c-37,-80 -82,-163 -141,-255l-251 -396 -110 0 0 783 95 0zm1096 0c-7,-38 -10,-86 -10,-134l0 -211c0,-113 -42,-230 -214,-230 -71,0 -138,20 -184,50l23 67c39,-25 94,-42 146,-42 115,0 128,84 128,131l0 11c-217,-1 -338,74 -338,210 0,81 58,161 172,161 80,0 141,-39 172,-84l3 0 9 71 93 0zm-109 -189c0,10 -2,22 -5,32 -17,48 -63,95 -136,95 -53,0 -97,-32 -97,-98 0,-109 127,-129 238,-127l0 98zm390 -636l-101 0 0 825 101 0 0 -211 52 -58 195 269 124 0 -248 -331 218 -231 -123 0 -166 194c-16,20 -36,44 -50,64l-2 0 0 -521zm696 250c-156,0 -279,110 -279,299 0,178 117,289 269,289 136,0 280,-91 280,-299 0,-172 -109,-289 -270,-289zm-3 77c121,0 169,121 169,216 0,127 -73,218 -171,218 -100,0 -171,-93 -171,-216 0,-107 52,-218 173,-218zm427 729l101 0 0 -306 3 0c33,56 98,88 173,88 132,0 256,-100 256,-302 0,-171 -103,-286 -239,-286 -92,0 -158,41 -200,109l-2 0 -5 -96 -92 0c3,53 5,111 5,183l0 610zm101 -556c0,-14 4,-29 7,-42 20,-77 85,-127 155,-127 108,0 167,97 167,210 0,129 -63,217 -171,217 -73,0 -135,-49 -153,-120 -2,-13 -5,-27 -5,-42l0 -96zm585 325l102 0 0 -338c0,-17 3,-35 7,-48 18,-57 70,-104 138,-104 96,0 130,75 130,166l0 324 102 0 0 -336c0,-193 -121,-239 -199,-239 -93,0 -158,52 -186,106l-2 0 -6 -93 -90 0c3,46 4,94 4,152l0 410zm1122 -262c1,-11 4,-27 4,-48 0,-103 -49,-265 -233,-265 -164,0 -264,134 -264,303 0,170 104,284 277,284 90,0 151,-19 187,-35l-17 -73c-39,16 -83,29 -156,29 -102,0 -191,-57 -193,-195l395 0zm-394 -74c8,-71 54,-166 157,-166 115,0 143,101 142,166l-299 0zm188 -303l110 -166 -76 0 -70 110 -2 0 -68 -110 -78 0 111 166 73 0zm384 -58l0 135 -87 0 0 78 87 0 0 307c0,66 11,116 40,146 24,28 63,43 110,43 40,0 71,-6 91,-14l-5 -77c-12,4 -32,7 -59,7 -57,0 -77,-39 -77,-109l0 -303 147 0 0 -78 -147 0 0 -162 -100 27zm832 435c1,-11 3,-27 3,-48 0,-103 -49,-265 -232,-265 -164,0 -264,134 -264,303 0,170 103,284 277,284 89,0 151,-19 187,-35l-18 -73c-38,16 -82,29 -156,29 -102,0 -190,-57 -192,-195l395 0zm-394 -74c8,-71 53,-166 157,-166 115,0 143,101 141,166l-298 0zm-5059 1507c39,23 96,38 158,38 134,0 210,-69 210,-168 0,-84 -50,-133 -147,-170 -73,-28 -107,-49 -107,-95 0,-42 34,-77 94,-77 52,0 93,19 115,33l26 -75c-32,-18 -82,-35 -139,-35 -121,0 -194,75 -194,165 0,68 48,124 149,160 76,28 105,54 105,103 0,47 -35,84 -110,84 -51,0 -104,-21 -135,-41l-25 78zm443 -536l214 563 98 0 220 -563 -106 0 -110 316c-18,51 -35,98 -47,144l-4 0c-12,-46 -27,-93 -45,-144l-111 -316 -109 0zm880 -13c-155,0 -279,111 -279,299 0,178 118,290 270,290 136,0 280,-91 280,-299 0,-172 -109,-290 -271,-290zm-2 77c121,0 169,121 169,216 0,127 -74,219 -171,219 -100,0 -171,-93 -171,-216 0,-107 52,-219 173,-219zm300 742c55,0 129,-19 175,-64 50,-51 67,-122 67,-232l0 -510 -102 0 0 471c0,135 -11,179 -39,212 -24,26 -65,39 -111,43l10 80zm192 -1028c-38,0 -65,28 -65,64 0,34 24,63 63,63 40,0 65,-29 64,-63 0,-36 -25,-64 -62,-64zm344 785l0 -563 -102 0 0 563 102 0zm-51 -785c-37,0 -64,28 -64,64 0,35 26,63 62,63 41,0 66,-28 65,-63 0,-36 -24,-64 -63,-64zm453 758c39,23 96,38 158,38 133,0 210,-69 210,-168 0,-84 -50,-133 -148,-170 -73,-28 -106,-49 -106,-95 0,-42 33,-77 94,-77 52,0 93,19 115,33l25 -75c-31,-18 -81,-35 -138,-35 -121,0 -194,75 -194,165 0,68 48,124 149,160 75,28 104,54 104,103 0,47 -35,84 -109,84 -51,0 -105,-21 -135,-41l-25 78zm227 -613l110 -166 -77 0 -69 111 -2 0 -69 -111 -79 0 112 166 74 0zm398 -186l-101 0 0 826 101 0 0 -212 53 -58 194 270 124 0 -248 -332 218 -231 -123 0 -165 194c-17,20 -36,44 -50,64l-3 0 0 -521zm696 250c-156,0 -279,111 -279,299 0,178 117,290 269,290 136,0 281,-91 281,-299 0,-172 -110,-290 -271,-290zm-3 77c121,0 169,121 169,216 0,127 -73,219 -171,219 -100,0 -171,-93 -171,-216 0,-107 52,-219 173,-219zm427 499l103 0 0 -826 -103 0 0 826zm770 -563l-102 0 0 345c0,19 -4,38 -10,53 -18,45 -66,93 -134,93 -93,0 -126,-72 -126,-179l0 -312 -102 0 0 329c0,198 105,247 194,247 100,0 159,-60 186,-105l2 0 6 92 91 0c-4,-44 -5,-96 -5,-154l0 -409z"/>
   <path class="fil0" d="M1746 571c80,-80 191,-129 313,-129 244,0 441,197 441,441l0 1284 422 -421c172,-172 452,-172 624,0 173,173 173,452 0,625l-1175 1175c-80,80 -190,130 -312,130 -244,0 -442,-198 -442,-442l0 -1284 -421 421c-173,172 -452,172 -625,0 -172,-173 -172,-452 0,-625l1175 -1175zm1246 1246c134,-133 350,-134 484,0 133,133 133,350 0,483l-1176 1176c-133,133 -350,133 -483,0 -133,-134 -133,-350 0,-484l1175 -1175zm-592 450l0 -1384c0,-188 -153,-341 -341,-341 -189,0 -342,153 -342,341l0 2072c9,-11 18,-23 29,-33l654 -655zm-783 -1384c0,-14 1,-29 2,-43l-977 977c-134,133 -134,350 0,483 133,134 350,134 483,0l492 -492 0 -925z"/>
  </g>
 </g>
</svg>
