<?xml version="1.0" encoding="UTF-8"?>
<!DOCTYPE svg PUBLIC "-//W3C//DTD SVG 1.1//EN" "http://www.w3.org/Graphics/SVG/1.1/DTD/svg11.dtd">
<!-- Creator: CorelDRAW X7 -->
<svg xmlns="http://www.w3.org/2000/svg" xml:space="preserve" width="41.173mm" height="41.173mm" version="1.1" style="shape-rendering:geometricPrecision; text-rendering:geometricPrecision; image-rendering:optimizeQuality; fill-rule:evenodd; clip-rule:evenodd"
viewBox="0 0 4117 4117"
 xmlns:xlink="http://www.w3.org/1999/xlink">
 <defs>
  <style type="text/css">
   <![CDATA[
    .fil0 {fill:#008BD2}
   ]]>
  </style>
 </defs>
 <g id="Vrstva_x0020_1">
  <metadata id="CorelCorpID_0Corel-Layer"/>
  <path class="fil0" d="M1746 571c80,-80 191,-129 313,-129 244,0 441,197 441,441l0 1284 422 -421c172,-172 452,-172 624,0 173,173 173,453 0,625l-1175 1175c-80,80 -190,130 -312,130 -244,0 -442,-198 -442,-442l0 -1284 -421 421c-173,173 -452,173 -625,0 -173,-172 -172,-452 0,-625l1175 -1175zm1246 1246c134,-133 350,-133 484,0 133,133 133,350 0,483l-1176 1176c-133,133 -350,133 -483,0 -133,-134 -133,-350 0,-484l1175 -1175zm-592 450l0 -1384c0,-188 -153,-341 -341,-341 -189,0 -342,153 -342,341l0 2072c9,-11 18,-23 29,-33l654 -655zm-783 -1384c0,-14 1,-29 2,-43l-977 977c-134,133 -134,350 0,483 133,134 350,134 483,0l492 -492 0 -925z"/>
 </g>
</svg>
