<?xml version="1.0" encoding="UTF-8"?>
<!DOCTYPE svg PUBLIC "-//W3C//DTD SVG 1.1//EN" "http://www.w3.org/Graphics/SVG/1.1/DTD/svg11.dtd">
<!-- Creator: CorelDRAW X7 -->
<svg xmlns="http://www.w3.org/2000/svg" xml:space="preserve" width="90.389mm" height="72.499mm" version="1.1" style="shape-rendering:geometricPrecision; text-rendering:geometricPrecision; image-rendering:optimizeQuality; fill-rule:evenodd; clip-rule:evenodd"
viewBox="0 0 9039 7250"
 xmlns:xlink="http://www.w3.org/1999/xlink">
 <defs>
  <style type="text/css">
   <![CDATA[
    .fil0 {fill:#008BD2}
    .fil1 {fill:#008BD2;fill-rule:nonzero}
   ]]>
  </style>
 </defs>
 <g id="Vrstva_x0020_1">
  <metadata id="CorelCorpID_0Corel-Layer"/>
  <g id="_3104719585216">
   <path class="fil0" d="M1746 571c80,-80 191,-129 313,-129 244,0 441,197 441,441l0 1285 422 -422c172,-172 452,-172 624,0 173,173 173,453 0,625l-1175 1175c-80,80 -190,130 -312,130 -244,0 -442,-198 -442,-442l0 -1284 -421 421c-173,173 -452,173 -625,0 -172,-172 -172,-452 0,-625l1175 -1175zm1246 1246c134,-133 350,-133 484,0 133,134 133,350 0,483l-1176 1176c-133,133 -350,133 -483,0 -133,-134 -133,-350 0,-484l1175 -1175zm-592 451l0 -1385c0,-188 -153,-341 -341,-341 -189,0 -342,153 -342,341l0 2072c9,-11 18,-23 29,-33l654 -654zm-783 -1385c0,-14 1,-29 2,-43l-977 977c-134,134 -134,350 0,483 133,134 350,134 483,0l492 -491 0 -926z"/>
   <g>
    <path class="fil1" d="M3279 3968l0 -335c0,-130 -2,-225 -8,-323l4 -2c39,85 91,175 146,262l249 398 102 0 0 -784 -95 0 0 328c0,122 2,217 11,322l-2 1c-37,-80 -82,-163 -141,-255l-251 -396 -110 0 0 784 95 0zm1096 0c-7,-39 -10,-87 -10,-135l0 -211c0,-113 -42,-230 -214,-230 -71,0 -138,20 -184,50l23 67c39,-25 94,-41 146,-41 115,0 128,83 128,130l0 11c-217,-1 -338,74 -338,210 0,81 58,161 172,161 80,0 141,-39 172,-83l3 0 9 71 93 0zm-109 -190c0,10 -2,22 -5,33 -17,47 -63,94 -136,94 -53,0 -97,-32 -97,-98 0,-109 127,-129 238,-127l0 98zm390 -636l-101 0 0 826 101 0 0 -212 52 -58 195 270 124 0 -248 -332 218 -231 -123 0 -166 194c-16,20 -36,44 -50,64l-2 0 0 -521zm696 250c-156,0 -279,111 -279,299 0,178 117,289 269,289 136,0 280,-90 280,-298 0,-173 -109,-290 -270,-290zm-3 77c121,0 169,121 169,216 0,127 -73,219 -171,219 -100,0 -171,-93 -171,-217 0,-107 52,-218 173,-218zm427 729l101 0 0 -306 3 0c33,56 98,88 173,88 132,0 256,-100 256,-302 0,-171 -103,-286 -239,-286 -92,0 -158,41 -200,109l-2 0 -5 -96 -92 0c3,53 5,111 5,184l0 609zm101 -556c0,-14 4,-29 7,-42 20,-77 85,-127 155,-127 108,0 167,97 167,210 0,129 -63,217 -171,217 -73,0 -135,-49 -153,-120 -2,-12 -5,-26 -5,-42l0 -96zm585 326l102 0 0 -339c0,-17 3,-35 7,-47 18,-57 70,-105 138,-105 96,0 130,75 130,166l0 325 102 0 0 -336c0,-193 -121,-240 -199,-240 -93,0 -158,52 -186,106l-2 0 -6 -93 -90 0c3,46 4,94 4,152l0 411zm1122 -263c1,-11 4,-27 4,-48 0,-103 -49,-265 -233,-265 -164,0 -264,134 -264,303 0,170 104,284 277,284 90,0 151,-18 187,-35l-17 -73c-39,16 -83,29 -156,29 -102,0 -191,-57 -193,-195l395 0zm-394 -73c8,-71 54,-167 157,-167 115,0 143,101 142,167l-299 0zm188 -304l110 -166 -76 0 -70 110 -2 0 -68 -110 -78 0 111 166 73 0zm384 -58l0 135 -87 0 0 78 87 0 0 307c0,66 11,116 40,146 24,28 63,43 110,43 40,0 71,-6 91,-14l-5 -77c-12,4 -32,7 -59,7 -57,0 -77,-39 -77,-109l0 -303 147 0 0 -78 -147 0 0 -162 -100 27zm832 435c1,-11 3,-27 3,-48 0,-103 -49,-265 -232,-265 -164,0 -264,134 -264,303 0,170 103,284 277,284 89,0 151,-18 187,-35l-18 -73c-38,16 -82,29 -156,29 -102,0 -190,-57 -192,-195l395 0zm-394 -73c8,-71 53,-167 157,-167 115,0 143,101 141,167l-298 0zm-5059 1506c39,23 96,39 158,39 134,0 210,-70 210,-169 0,-84 -50,-133 -147,-170 -73,-28 -107,-49 -107,-95 0,-42 34,-77 94,-77 52,0 93,19 115,33l26 -75c-32,-18 -82,-35 -139,-35 -121,0 -194,75 -194,166 0,67 48,123 149,159 76,28 105,54 105,103 0,47 -35,84 -110,84 -51,0 -104,-21 -135,-41l-25 78zm443 -536l214 563 98 0 220 -563 -106 0 -110 316c-18,52 -35,98 -47,145l-4 0c-12,-47 -27,-93 -45,-145l-111 -316 -109 0zm880 -13c-155,0 -279,111 -279,299 0,178 118,290 270,290 136,0 280,-91 280,-299 0,-172 -109,-290 -271,-290zm-2 77c121,0 169,121 169,216 0,127 -74,219 -171,219 -100,0 -171,-93 -171,-216 0,-107 52,-219 173,-219zm300 742c55,0 129,-19 175,-64 50,-51 67,-122 67,-231l0 -511 -102 0 0 471c0,135 -11,179 -39,212 -24,26 -65,39 -111,43l10 80zm192 -1028c-38,0 -65,28 -65,64 0,34 24,63 63,63 40,0 65,-29 64,-63 0,-36 -25,-64 -62,-64zm344 785l0 -563 -102 0 0 563 102 0zm-51 -785c-37,0 -64,28 -64,64 0,35 26,63 62,63 41,0 66,-28 65,-63 0,-36 -24,-64 -63,-64zm453 758c39,23 96,39 158,39 133,0 210,-70 210,-169 0,-84 -50,-133 -148,-170 -73,-28 -106,-49 -106,-95 0,-42 33,-77 94,-77 52,0 93,19 115,33l25 -75c-31,-18 -81,-35 -138,-35 -121,0 -194,75 -194,166 0,67 48,123 149,159 75,28 104,54 104,103 0,47 -35,84 -109,84 -51,0 -105,-21 -135,-41l-25 78zm227 -612l110 -167 -77 0 -69 111 -2 0 -69 -111 -79 0 112 167 74 0zm398 -186l-101 0 0 825 101 0 0 -212 53 -58 194 270 124 0 -248 -331 218 -232 -123 0 -165 194c-17,20 -36,45 -50,64l-3 0 0 -520zm696 249c-156,0 -279,111 -279,299 0,178 117,290 269,290 136,0 281,-91 281,-299 0,-172 -110,-290 -271,-290zm-3 77c121,0 169,121 169,216 0,127 -73,219 -171,219 -100,0 -171,-93 -171,-216 0,-107 52,-219 173,-219zm427 499l102 0 0 -825 -102 0 0 825zm770 -563l-102 0 0 346c0,18 -4,37 -10,52 -18,45 -66,93 -134,93 -93,0 -126,-72 -126,-179l0 -312 -102 0 0 329c0,198 105,247 194,247 100,0 159,-60 186,-105l2 0 6 92 91 0c-4,-44 -5,-95 -5,-154l0 -409z"/>
    <path class="fil1" d="M3184 6680l218 0 0 -43 -168 0 0 -349 -50 0 0 392zm330 0l0 -282 -51 0 0 282 51 0zm-25 -393c-19,0 -32,14 -32,32 0,18 12,32 30,32 21,0 34,-14 33,-32 0,-18 -12,-32 -31,-32zm134 44l0 67 -44 0 0 39 44 0 0 154c0,33 5,58 20,73 12,14 31,22 55,22 20,0 35,-3 45,-7l-2 -39c-6,2 -16,4 -30,4 -28,0 -38,-20 -38,-55l0 -152 73 0 0 -39 -73 0 0 -80 -50 13zm303 61c-78,0 -140,55 -140,149 0,89 59,145 135,145 68,0 140,-45 140,-149 0,-86 -54,-145 -135,-145zm-1 38c60,0 84,61 84,109 0,63 -37,109 -85,109 -50,0 -86,-47 -86,-108 0,-54 26,-110 87,-110zm213 250l50 0 0 -170c0,-9 1,-17 4,-25 8,-26 32,-51 64,-51 39,0 58,32 58,77l0 169 50 0 0 -174c0,-9 2,-19 4,-26 9,-25 32,-46 61,-46 41,0 61,32 61,87l0 159 50 0 0 -166c0,-98 -55,-122 -92,-122 -27,0 -46,7 -63,20 -11,9 -22,21 -31,36l-1 0c-12,-33 -42,-56 -80,-56 -46,0 -73,25 -88,52l-2 0 -2 -46 -45 0c2,24 2,48 2,77l0 205zm453 -282l104 260c2,6 3,10 3,13 0,3 -2,7 -4,12 -12,26 -29,46 -43,57 -15,13 -32,21 -45,25l13 43c13,-2 38,-11 63,-33 35,-30 60,-80 96,-176l77 -201 -54 0 -56 166c-7,20 -13,41 -18,58l-1 0c-5,-17 -12,-39 -18,-57l-62 -167 -55 0zm300 268c19,12 48,20 79,20 67,0 105,-35 105,-85 0,-42 -25,-66 -74,-85 -36,-13 -53,-24 -53,-47 0,-21 17,-39 47,-39 26,0 46,10 57,17l13 -38c-16,-9 -41,-17 -69,-17 -61,0 -97,37 -97,83 0,33 24,61 74,79 38,14 53,28 53,52 0,23 -18,42 -55,42 -26,0 -52,-11 -68,-21l-12 39zm114 -306l54 -83 -38 0 -34 55 -2 0 -34 -55 -39 0 55 83 38 0zm148 320l51 0 0 -413 -51 0 0 413z"/>
    <path class="fil1" d="M3235 6081l0 -242 68 0 0 -39 -68 0 0 -15c0,-43 11,-82 54,-82 15,0 25,3 33,7l7 -40c-10,-4 -26,-8 -44,-8 -24,0 -49,8 -69,26 -23,23 -32,59 -32,98l0 14 -40 0 0 39 40 0 0 242 51 0zm344 -131c1,-6 2,-14 2,-24 0,-52 -24,-133 -116,-133 -82,0 -132,67 -132,152 0,85 52,142 138,142 45,0 76,-9 94,-18l-9 -36c-19,8 -41,14 -78,14 -51,0 -95,-28 -96,-97l197 0zm-197 -37c4,-35 27,-83 79,-83 57,0 71,51 71,83l-150 0zm255 155c20,11 48,19 79,19 67,0 105,-35 105,-84 0,-42 -25,-67 -74,-85 -36,-14 -53,-25 -53,-48 0,-21 17,-38 47,-38 26,0 47,9 58,16l12 -37c-15,-10 -40,-18 -69,-18 -60,0 -97,38 -97,83 0,34 24,61 75,80 37,13 52,27 52,51 0,23 -18,42 -55,42 -25,0 -52,-10 -67,-20l-13 39zm274 -336l0 68 -44 0 0 39 44 0 0 153c0,33 5,58 20,73 12,14 31,22 55,22 20,0 35,-3 45,-7l-2 -38c-7,1 -16,3 -30,3 -28,0 -38,-20 -38,-55l0 -151 73 0 0 -39 -73 0 0 -81 -50 13zm244 349l0 -281 -51 0 0 281 51 0zm-25 -392c-19,0 -32,14 -32,32 0,17 12,31 30,31 21,0 34,-14 33,-31 0,-18 -12,-32 -31,-32zm87 111l107 281 49 0 111 -281 -54 0 -54 158c-10,25 -18,49 -24,72l-2 0c-6,-23 -13,-47 -23,-72l-55 -158 -55 0zm527 281c-3,-19 -4,-43 -4,-67l0 -106c0,-56 -21,-115 -107,-115 -36,0 -70,10 -93,25l12 34c20,-13 47,-21 73,-21 58,0 64,42 64,65l0 6c-109,-1 -169,37 -169,105 0,40 29,80 86,80 40,0 70,-19 86,-41l2 0 4 35 46 0zm-54 -95c0,6 -1,11 -3,17 -8,23 -31,47 -68,47 -26,0 -48,-16 -48,-49 0,-55 63,-65 119,-64l0 49zm144 95l52 0 0 -413 -52 0 0 413zm238 -281l107 281 49 0 110 -281 -53 0 -55 158c-9,25 -17,49 -23,72l-2 0c-6,-23 -14,-47 -23,-72l-55 -158 -55 0zm295 281l229 0 0 -41 -165 0 0 -1c13,-14 24,-28 36,-44l126 -163 0 -32 -214 0 0 41 152 0 0 1c-13,15 -24,29 -37,44l-127 165 0 30zm481 -413l0 168 -1 0c-13,-22 -42,-43 -85,-43 -69,0 -127,58 -126,151 0,86 52,143 120,143 46,0 80,-23 96,-55l1 0 2 49 46 0c-1,-19 -2,-48 -2,-73l0 -340 -51 0zm0 295c0,8 -1,15 -2,22 -10,39 -41,61 -75,61 -56,0 -84,-47 -84,-104 0,-62 32,-109 85,-109 38,0 66,27 74,60 1,6 2,15 2,21l0 49zm374 -13c1,-6 2,-14 2,-24 0,-52 -24,-133 -116,-133 -82,0 -132,67 -132,152 0,85 52,142 138,142 45,0 76,-9 94,-18l-9 -36c-19,8 -41,14 -78,14 -51,0 -95,-28 -96,-97l197 0zm-197 -37c4,-35 27,-83 79,-83 57,0 71,51 71,83l-150 0zm95 -152l54 -83 -38 0 -35 55 -1 0 -34 -55 -39 0 56 83 37 0zm180 320l51 0 0 -413 -51 0 0 413zm352 0c-4,-19 -5,-43 -5,-67l0 -106c0,-56 -21,-115 -107,-115 -35,0 -69,10 -92,25l11 34c20,-13 47,-21 73,-21 58,0 64,42 64,65l0 6c-108,-1 -169,37 -169,105 0,40 29,80 86,80 40,0 71,-19 86,-41l2 0 4 35 47 0zm-54 -95c0,6 -2,11 -3,17 -9,23 -32,47 -68,47 -27,0 -49,-16 -49,-49 0,-55 64,-65 120,-64l0 49zm-31 -308l-51 83 36 0 71 -83 -56 0zm135 122l107 281 49 0 111 -281 -54 0 -55 158c-9,25 -17,49 -23,72l-2 0c-6,-23 -14,-47 -23,-72l-55 -158 -55 0zm527 281c-3,-19 -5,-43 -5,-67l0 -106c0,-56 -21,-115 -107,-115 -35,0 -69,10 -92,25l12 34c19,-13 47,-21 73,-21 57,0 64,42 64,65l0 6c-109,-1 -169,37 -169,105 0,40 29,80 86,80 40,0 70,-19 86,-41l1 0 5 35 46 0zm-54 -95c0,6 -1,11 -3,17 -8,23 -31,47 -68,47 -26,0 -48,-16 -48,-49 0,-55 63,-65 119,-64l0 49zm-31 -308l-51 83 37 0 71 -83 -57 0zm175 403l51 0 0 -169c0,-9 2,-18 4,-24 9,-28 35,-52 68,-52 49,0 66,38 66,83l0 162 51 0 0 -168c0,-96 -61,-120 -100,-120 -46,0 -79,26 -93,53l-1 0 -3 -46 -45 0c2,23 2,47 2,76l0 205zm386 0l0 -281 -51 0 0 281 51 0zm-3 -403l-51 83 36 0 71 -83 -56 0z"/>
   </g>
  </g>
 </g>
</svg>
